<?xml version="1.0" encoding="UTF-8" standalone="no"?>
<svg width="140px" height="24px" viewBox="0 0 140 24" version="1.1" xmlns="http://www.w3.org/2000/svg" xmlns:xlink="http://www.w3.org/1999/xlink" xmlns:sketch="http://www.bohemiancoding.com/sketch/ns">
    <!-- Generator: Sketch 3.3.3 (12081) - http://www.bohemiancoding.com/sketch -->
    <title>AnyVan Logo</title>
    <desc>Created with Sketch.</desc>
    <defs></defs>
    <g id="Form-Examples" stroke="none" stroke-width="1" fill="none" fill-rule="evenodd" sketch:type="MSPage">
        <g id="Listing-Furniture-&amp;-Appliances-+-Floors" sketch:type="MSArtboardGroup" transform="translate(-241.000000, -19.000000)" fill="#41A5DD">
            <g id="AnyVan-Logo" sketch:type="MSLayerGroup" transform="translate(241.000000, 19.000000)">
                <g id="Group" sketch:type="MSShapeGroup">
                    <path d="M58.0761155,0.128244275 C56.5144357,0.128244275 55.5590551,0.952671756 55.5590551,2.63816794 L55.5590551,16.1954198 L55.4855643,16.1954198 L46.335958,1.48396947 C45.7664042,0.53129771 44.8110236,0.109923664 43.7270341,0.109923664 C41.503937,0.109923664 40.4383202,1.00763359 40.4383202,3.15114504 L40.4383202,21.2885496 C40.4383202,22.9740458 41.3937008,23.7984733 42.9553806,23.7984733 C44.5170604,23.7984733 45.4724409,22.9740458 45.4724409,21.2885496 L45.4724409,8.11603053 L45.5275591,8.11603053 L54.6036745,22.4061069 C55.2650919,23.4503817 55.816273,23.7984733 57.4698163,23.7984733 C59.6745407,23.7984733 60.5564304,22.6259542 60.5564304,20.5557252 L60.5564304,2.61984733 C60.5931759,0.952671756 59.6377953,0.128244275 58.0761155,0.128244275 L58.0761155,0.128244275 Z" id="Shape"></path>
                    <path d="M78.2677165,0.128244275 C77.183727,0.128244275 76.6141732,0.512977099 76.007874,1.64885496 L71.488189,10.0030534 L66.9317585,1.64885496 C66.3989501,0.641221374 65.8110236,0.128244275 64.5800525,0.128244275 C63.5695538,0.128244275 61.9343832,0.732824427 61.9343832,2.50992366 C61.9343832,2.98625954 62.1181102,3.46259542 62.3753281,3.88396947 L68.7690289,14.4916031 L68.7690289,21.2335878 C68.7690289,22.7908397 69.7795276,23.8351145 71.3779528,23.8351145 C72.976378,23.8351145 73.9868766,22.7908397 73.9868766,21.2335878 L73.9868766,14.4916031 L80.3805774,3.88396947 C80.6377953,3.46259542 80.8215223,2.98625954 80.8215223,2.50992366 C80.839895,0.732824427 79.2230971,0.128244275 78.2677165,0.128244275 L78.2677165,0.128244275 Z" id="Shape"></path>
                    <path d="M101.490814,2.45496183 C101.490814,0.714503817 100.149606,0.128244275 98.8451444,0.128244275 C97.6325459,0.128244275 96.8792651,0.861068702 96.4015748,2.41832061 L91.496063,17.9725191 L91.4409449,17.9725191 L86.7191601,2.41832061 C86.2414698,0.861068702 85.4698163,0.128244275 84.0734908,0.128244275 C82.7690289,0.128244275 81.4278215,0.696183206 81.4278215,2.45496183 C81.4278215,2.87633588 81.519685,3.37099237 81.7401575,3.97557252 L88.1706037,22.021374 C88.7034121,23.5053435 89.7322835,23.8351145 91.3490814,23.8351145 C92.9658793,23.8351145 93.9947507,23.5236641 94.5275591,22.021374 L101.160105,3.97557252 C101.39895,3.37099237 101.490814,2.85801527 101.490814,2.45496183 L101.490814,2.45496183 Z" id="Shape"></path>
                    <path d="M111.559055,2.03358779 C110.989501,0.421374046 109.942257,0.128244275 108.748031,0.128244275 L107.498688,0.128244275 C106.230971,0.128244275 105.404199,0.549618321 104.944882,1.7221374 L98.183727,19.5480916 C98,20.0610687 97.6692913,20.9770992 97.6692913,21.5450382 C97.6692913,22.9374046 98.6614173,23.8351145 100.094488,23.8351145 C101.343832,23.8351145 102.060367,23.4137405 102.427822,22.4061069 L103.805774,18.5954198 L112.220472,18.5954198 L113.56168,22.4061069 C113.947507,23.4137405 114.774278,23.8351145 115.913386,23.8351145 C117.254593,23.8351145 118.375328,22.8274809 118.375328,21.5450382 C118.375328,20.9770992 118.062992,20.0610687 117.860892,19.5480916 L111.559055,2.03358779 L111.559055,2.03358779 Z M104.963255,14.9679389 L108.049869,5.78931298 L108.104987,5.78931298 L111.062992,14.9679389 L104.963255,14.9679389 L104.963255,14.9679389 Z" id="Shape"></path>
                    <path d="M137.317585,0.128244275 C135.755906,0.128244275 134.800525,0.952671756 134.800525,2.63816794 L134.800525,16.1954198 L134.745407,16.1954198 L125.595801,1.48396947 C125.026247,0.53129771 124.070866,0.109923664 122.986877,0.109923664 C120.76378,0.109923664 119.698163,1.00763359 119.698163,3.15114504 L119.698163,21.2885496 C119.698163,22.9740458 120.653543,23.7984733 122.215223,23.7984733 C123.776903,23.7984733 124.732283,22.9740458 124.732283,21.2885496 L124.732283,8.11603053 L124.787402,8.11603053 L133.863517,22.4061069 C134.524934,23.4503817 135.076115,23.7984733 136.729659,23.7984733 C138.934383,23.7984733 139.816273,22.6259542 139.816273,20.5557252 L139.816273,2.61984733 C139.834646,0.952671756 138.879265,0.128244275 137.317585,0.128244275 L137.317585,0.128244275 Z" id="Shape"></path>
                    <ellipse id="Oval" cx="11.335958" cy="19.4931298" rx="2.75590551" ry="2.7480916"></ellipse>
                    <path d="M32.9422572,2.03358779 C32.3727034,0.421374046 31.3254593,0.128244275 30.1312336,0.128244275 L28.8818898,0.128244275 C28.7716535,0.128244275 28.6614173,0.128244275 28.5511811,0.146564885 L2.97637795,0.146564885 C1.35958005,0.146564885 0.0367454068,1.46564885 0.0367454068,3.0778626 L0.0367454068,20.9038168 C0.0367454068,22.5160305 1.35958005,23.8351145 2.97637795,23.8351145 L21.4593176,23.8351145 L21.4593176,23.8167939 L21.5144357,23.8167939 C22.7637795,23.8167939 23.480315,23.3954198 23.847769,22.3877863 L25.2257218,18.5770992 L33.6404199,18.5770992 L34.9816273,22.3877863 C35.3674541,23.3954198 36.1942257,23.8167939 37.3333333,23.8167939 C38.6745407,23.8167939 39.7769029,22.8091603 39.7769029,21.5267176 C39.7769029,20.9587786 39.4645669,20.0427481 39.2624672,19.529771 L32.9422572,2.03358779 L32.9422572,2.03358779 Z M11.335958,22.8641221 C9.48031496,22.8641221 7.95538058,21.3618321 7.95538058,19.4931298 C7.95538058,17.6427481 9.46194226,16.1221374 11.335958,16.1221374 C13.191601,16.1221374 14.7165354,17.6244275 14.7165354,19.4931298 C14.6981627,21.3618321 13.191601,22.8641221 11.335958,22.8641221 L11.335958,22.8641221 Z M18.4829396,19.7496183 L15.3779528,19.7496183 C15.3779528,19.0900763 15.1023622,15.4259542 11.2440945,15.4259542 C7.38582677,15.4259542 7.22047244,19.7862595 7.22047244,19.7862595 L6.39370079,19.7862595 C6.39370079,19.7862595 3.98687664,18.8152672 3.49081365,18.5587786 C2.99475066,18.2839695 2.93963255,16.9282443 2.93963255,16.9282443 L2.93963255,15.7374046 L3.36220472,15.7374046 L3.36220472,14.5282443 C3.56430446,11.9633588 9.86614173,9.65496183 9.86614173,9.65496183 C9.86614173,9.65496183 15.1574803,4.4519084 15.984252,3.71908397 C17.7664042,2.16183206 24.9868766,2.50992366 24.9868766,2.50992366 L18.4829396,19.7496183 L18.4829396,19.7496183 Z M26.3464567,14.9679389 L29.4330709,5.78931298 L29.488189,5.78931298 L32.4461942,14.9679389 L26.3464567,14.9679389 L26.3464567,14.9679389 Z" id="Shape"></path>
                    <path d="M7.62467192,12.751145 C7.40419948,12.6961832 6.59580052,12.6961832 6.24671916,12.6778626 C6.13648294,12.6778626 6.02624672,12.7145038 5.95275591,12.7877863 C5.78740157,12.9160305 5.53018373,13.1725191 5.29133858,13.4839695 C5.01574803,13.8503817 4.81364829,14.3083969 4.68503937,14.6015267 C4.59317585,14.8396947 4.8503937,14.8580153 4.8503937,14.8580153 L5.45669291,14.9862595 C5.53018373,15.0045802 5.60367454,14.9862595 5.65879265,14.9312977 L7.67979003,13.1725191 C7.66141732,13.1725191 7.95538058,12.8244275 7.62467192,12.751145 L7.62467192,12.751145 Z" id="Shape"></path>
                    <path d="M21.2755906,4.04885496 C21,4.04885496 18.4461942,4.32366412 17.9501312,4.41526718 C17.4540682,4.50687023 16.7191601,5.07480916 16.7191601,5.07480916 L13.5774278,8.53740458 L13.5774278,10.3877863 L20.2283465,9.10534351 C20.2283465,9.10534351 21.0918635,8.94045802 21.2204724,7.84122137 C21.3490814,6.74198473 21.6246719,4.39694656 21.6246719,4.39694656 C21.6246719,4.39694656 21.5511811,4.04885496 21.2755906,4.04885496 L21.2755906,4.04885496 Z" id="Shape"></path>
                </g>
            </g>
        </g>
    </g>
</svg>